<svg width="807" height="815" viewBox="0 0 807 815" fill="none" xmlns="http://www.w3.org/2000/svg">
<path d="M366.813 391.822H389.098H394.911V431.546H430.76V370.506L449.169 322.061H422.04L366.813 391.822Z" fill="#65A5E1"/>
<path d="M517.999 335.665C511.316 313.958 497.989 294.896 479.899 281.164L583.845 167.039L609.036 195.136L532.494 273.617L622.601 218.39L646.823 256.177L557.685 307.528L663.294 281.306L671.045 319.155L576.094 344.346L671.046 344.346L671.046 383.102L576.094 383.102L574.156 389.884L671.046 417.982L653.605 458.675L565.436 426.702L648.761 483.866L619.694 513.902L545.089 466.426L604.192 536.187L574.156 562.347L513.116 494.524L561.56 576.88L527.649 604.009L477.683 518.747L523.774 707.681L494.707 713.494L434.636 536.187L434.635 760.97L390.067 760.97L390.067 536.187L329.995 713.494L300.928 707.681L347.019 518.747L297.053 604.009L263.142 576.88L311.586 494.524L250.546 562.347L220.51 536.187L279.613 466.427L205.008 513.902L175.941 483.867L259.266 426.702L171.097 458.675L153.657 417.982L250.546 389.884L248.608 383.102L153.657 383.102L153.657 344.346L248.608 344.346L153.657 319.155L161.408 281.306L267.017 307.528L177.879 256.177L202.101 218.39L292.208 273.617L215.666 195.137L240.857 167.039L348.493 281.306C330.432 295.076 317.147 314.167 310.509 335.888C303.872 357.609 304.218 380.864 311.497 402.378C318.776 423.892 332.622 442.58 351.084 455.809C369.546 469.037 391.693 476.14 414.406 476.115C437.118 476.091 459.25 468.941 477.683 455.672C496.117 442.404 509.922 423.687 517.155 402.157C524.388 380.627 524.683 357.371 517.999 335.665Z" fill="#65A5E1"/>
</svg>
